STARTFONT 2.1
COMMENT  
COMMENT  WARNING:  This bdf file was generated from an X server using
COMMENT  xbdfdump.  The resulting font is subject to the same copyright,
COMMENT  license, and trademark restrictions as the original font.  The
COMMENT  author and distributors of xbdfdump disclaim all liability for
COMMENT  misuse of the program or its output.
COMMENT  
FONT spc08x08e
SIZE 11 74 74
FONTBOUNDINGBOX 8 8 0 0
STARTPROPERTIES 7
POINT_SIZE 110
WEIGHT 259
X_HEIGHT 8
QUAD_WIDTH 8
DEFAULT_CHAR 0
FONT_ASCENT 8
FONT_DESCENT 0
ENDPROPERTIES
CHARS 256
STARTCHAR C000
ENCODING 0
SWIDTH 707 0
DWIDTH 8 0
BBX 0 0 0 0
BITMAP
ENDCHAR
STARTCHAR C001
ENCODING 1
SWIDTH 707 0
DWIDTH 8 0
BBX 8 7 0 1
BITMAP
7e
81
a5
81
bd
81
7e
ENDCHAR
STARTCHAR C002
ENCODING 2
SWIDTH 707 0
DWIDTH 8 0
BBX 8 7 0 1
BITMAP
7e
ff
db
ff
c3
ff
7e
ENDCHAR
STARTCHAR C003
ENCODING 3
SWIDTH 707 0
DWIDTH 8 0
BBX 7 7 1 1
BITMAP
6c
fe
fe
fe
7c
38
10
ENDCHAR
STARTCHAR C004
ENCODING 4
SWIDTH 707 0
DWIDTH 8 0
BBX 7 7 1 1
BITMAP
10
38
7c
fe
7c
38
10
ENDCHAR
STARTCHAR C005
ENCODING 5
SWIDTH 707 0
DWIDTH 8 0
BBX 7 8 1 0
BITMAP
38
38
10
d6
fe
d6
10
38
ENDCHAR
STARTCHAR C006
ENCODING 6
SWIDTH 707 0
DWIDTH 8 0
BBX 7 8 1 0
BITMAP
10
38
7c
fe
7c
10
38
7c
ENDCHAR
STARTCHAR C007
ENCODING 7
SWIDTH 707 0
DWIDTH 8 0
BBX 4 4 2 2
BITMAP
60
f0
f0
60
ENDCHAR
STARTCHAR C010
ENCODING 8
SWIDTH 707 0
DWIDTH 8 0
BBX 8 8 0 0
BITMAP
ff
ff
e7
c3
c3
e7
ff
ff
ENDCHAR
STARTCHAR C011
ENCODING 9
SWIDTH 707 0
DWIDTH 8 0
BBX 6 6 1 1
BITMAP
78
84
84
84
84
78
ENDCHAR
STARTCHAR C012
ENCODING 10
SWIDTH 707 0
DWIDTH 8 0
BBX 8 8 0 0
BITMAP
ff
c3
bd
bd
bd
bd
c3
ff
ENDCHAR
STARTCHAR C013
ENCODING 11
SWIDTH 707 0
DWIDTH 8 0
BBX 7 8 1 0
BITMAP
0e
06
0a
78
84
84
84
78
ENDCHAR
STARTCHAR C014
ENCODING 12
SWIDTH 707 0
DWIDTH 8 0
BBX 6 8 1 0
BITMAP
78
84
84
84
78
30
fc
30
ENDCHAR
STARTCHAR C015
ENCODING 13
SWIDTH 707 0
DWIDTH 8 0
BBX 7 8 1 0
BITMAP
3e
22
3e
20
20
60
e0
c0
ENDCHAR
STARTCHAR C016
ENCODING 14
SWIDTH 707 0
DWIDTH 8 0
BBX 7 8 1 0
BITMAP
3e
22
3e
22
26
6e
ec
c0
ENDCHAR
STARTCHAR C017
ENCODING 15
SWIDTH 707 0
DWIDTH 8 0
BBX 8 8 0 0
BITMAP
99
5a
3c
e7
e7
3c
5a
99
ENDCHAR
STARTCHAR C020
ENCODING 16
SWIDTH 707 0
DWIDTH 8 0
BBX 7 7 1 1
BITMAP
80
e0
f8
fe
f8
e0
80
ENDCHAR
STARTCHAR C021
ENCODING 17
SWIDTH 707 0
DWIDTH 8 0
BBX 7 7 1 1
BITMAP
02
0e
3e
fe
3e
0e
02
ENDCHAR
STARTCHAR C022
ENCODING 18
SWIDTH 707 0
DWIDTH 8 0
BBX 5 8 2 0
BITMAP
20
70
f8
20
20
f8
70
20
ENDCHAR
STARTCHAR C023
ENCODING 19
SWIDTH 707 0
DWIDTH 8 0
BBX 5 7 2 1
BITMAP
88
88
88
88
88
00
88
ENDCHAR
STARTCHAR C024
ENCODING 20
SWIDTH 707 0
DWIDTH 8 0
BBX 7 7 1 1
BITMAP
7e
ca
ca
7a
0a
0a
0a
ENDCHAR
STARTCHAR C025
ENCODING 21
SWIDTH 707 0
DWIDTH 8 0
BBX 7 8 1 0
BITMAP
3c
42
38
44
44
38
84
78
ENDCHAR
STARTCHAR C026
ENCODING 22
SWIDTH 707 0
DWIDTH 8 0
BBX 6 3 1 1
BITMAP
fc
fc
fc
ENDCHAR
STARTCHAR C027
ENCODING 23
SWIDTH 707 0
DWIDTH 8 0
BBX 8 8 0 0
BITMAP
08
1c
3e
08
3e
1c
08
ff
ENDCHAR
STARTCHAR C030
ENCODING 24
SWIDTH 707 0
DWIDTH 8 0
BBX 5 7 2 1
BITMAP
20
70
f8
20
20
20
20
ENDCHAR
STARTCHAR C031
ENCODING 25
SWIDTH 707 0
DWIDTH 8 0
BBX 5 7 2 1
BITMAP
20
20
20
20
f8
70
20
ENDCHAR
STARTCHAR C032
ENCODING 26
SWIDTH 707 0
DWIDTH 8 0
BBX 7 5 1 2
BITMAP
08
0c
fe
0c
08
ENDCHAR
STARTCHAR C033
ENCODING 27
SWIDTH 707 0
DWIDTH 8 0
BBX 7 5 1 2
BITMAP
20
60
fe
60
20
ENDCHAR
STARTCHAR C034
ENCODING 28
SWIDTH 707 0
DWIDTH 8 0
BBX 7 4 1 2
BITMAP
80
80
80
fe
ENDCHAR
STARTCHAR C035
ENCODING 29
SWIDTH 707 0
DWIDTH 8 0
BBX 7 5 1 2
BITMAP
28
6c
fe
6c
28
ENDCHAR
STARTCHAR C036
ENCODING 30
SWIDTH 707 0
DWIDTH 8 0
BBX 7 4 1 3
BITMAP
10
38
7c
fe
ENDCHAR
STARTCHAR C037
ENCODING 31
SWIDTH 707 0
DWIDTH 8 0
BBX 7 4 1 3
BITMAP
fe
7c
38
10
ENDCHAR
STARTCHAR space
ENCODING 32
SWIDTH 707 0
DWIDTH 8 0
BBX 0 0 0 0
BITMAP
ENDCHAR
STARTCHAR exclam
ENCODING 33
SWIDTH 707 0
DWIDTH 8 0
BBX 1 7 4 1
BITMAP
80
80
80
80
80
00
80
ENDCHAR
STARTCHAR quotedbl
ENCODING 34
SWIDTH 707 0
DWIDTH 8 0
BBX 4 3 3 5
BITMAP
90
90
90
ENDCHAR
STARTCHAR numbersign
ENCODING 35
SWIDTH 707 0
DWIDTH 8 0
BBX 6 7 2 1
BITMAP
48
48
fc
48
fc
48
48
ENDCHAR
STARTCHAR dollar
ENCODING 36
SWIDTH 707 0
DWIDTH 8 0
BBX 5 7 2 1
BITMAP
20
78
80
70
08
f0
20
ENDCHAR
STARTCHAR percent
ENCODING 37
SWIDTH 707 0
DWIDTH 8 0
BBX 7 7 1 1
BITMAP
c2
c4
08
10
20
46
86
ENDCHAR
STARTCHAR ampersand
ENCODING 38
SWIDTH 707 0
DWIDTH 8 0
BBX 7 7 1 1
BITMAP
30
48
30
4a
84
4c
32
ENDCHAR
STARTCHAR apostrophe
ENCODING 39
SWIDTH 707 0
DWIDTH 8 0
BBX 2 3 4 5
BITMAP
c0
40
80
ENDCHAR
STARTCHAR parenleft
ENCODING 40
SWIDTH 707 0
DWIDTH 8 0
BBX 3 7 3 1
BITMAP
20
40
80
80
80
40
20
ENDCHAR
STARTCHAR parenright
ENCODING 41
SWIDTH 707 0
DWIDTH 8 0
BBX 3 7 3 1
BITMAP
80
40
20
20
20
40
80
ENDCHAR
STARTCHAR asterisk
ENCODING 42
SWIDTH 707 0
DWIDTH 8 0
BBX 6 5 2 2
BITMAP
48
30
cc
30
48
ENDCHAR
STARTCHAR plus
ENCODING 43
SWIDTH 707 0
DWIDTH 8 0
BBX 5 5 2 2
BITMAP
20
20
f8
20
20
ENDCHAR
STARTCHAR comma
ENCODING 44
SWIDTH 707 0
DWIDTH 8 0
BBX 2 3 4 0
BITMAP
c0
40
80
ENDCHAR
STARTCHAR minus
ENCODING 45
SWIDTH 707 0
DWIDTH 8 0
BBX 6 1 2 4
BITMAP
fc
ENDCHAR
STARTCHAR period
ENCODING 46
SWIDTH 707 0
DWIDTH 8 0
BBX 2 2 4 1
BITMAP
c0
c0
ENDCHAR
STARTCHAR slash
ENCODING 47
SWIDTH 707 0
DWIDTH 8 0
BBX 7 7 1 1
BITMAP
02
04
08
10
20
40
80
ENDCHAR
STARTCHAR 0
ENCODING 48
SWIDTH 707 0
DWIDTH 8 0
BBX 5 7 2 1
BITMAP
70
88
88
88
88
88
70
ENDCHAR
STARTCHAR 1
ENCODING 49
SWIDTH 707 0
DWIDTH 8 0
BBX 5 7 2 1
BITMAP
20
60
a0
20
20
20
f8
ENDCHAR
STARTCHAR 2
ENCODING 50
SWIDTH 707 0
DWIDTH 8 0
BBX 6 7 2 1
BITMAP
78
84
04
38
40
80
fc
ENDCHAR
STARTCHAR 3
ENCODING 51
SWIDTH 707 0
DWIDTH 8 0
BBX 6 7 2 1
BITMAP
78
84
04
38
04
84
78
ENDCHAR
STARTCHAR 4
ENCODING 52
SWIDTH 707 0
DWIDTH 8 0
BBX 6 7 2 1
BITMAP
80
88
88
88
fc
08
08
ENDCHAR
STARTCHAR 5
ENCODING 53
SWIDTH 707 0
DWIDTH 8 0
BBX 6 7 2 1
BITMAP
f8
80
80
f8
04
84
78
ENDCHAR
STARTCHAR 6
ENCODING 54
SWIDTH 707 0
DWIDTH 8 0
BBX 6 7 2 1
BITMAP
38
40
80
f8
84
84
78
ENDCHAR
STARTCHAR 7
ENCODING 55
SWIDTH 707 0
DWIDTH 8 0
BBX 6 7 2 1
BITMAP
fc
04
08
10
20
20
20
ENDCHAR
STARTCHAR 8
ENCODING 56
SWIDTH 707 0
DWIDTH 8 0
BBX 6 7 2 1
BITMAP
78
84
84
78
84
84
78
ENDCHAR
STARTCHAR 9
ENCODING 57
SWIDTH 707 0
DWIDTH 8 0
BBX 6 7 2 1
BITMAP
78
84
84
7c
04
04
78
ENDCHAR
STARTCHAR colon
ENCODING 58
SWIDTH 707 0
DWIDTH 8 0
BBX 2 6 4 1
BITMAP
c0
c0
00
00
c0
c0
ENDCHAR
STARTCHAR semicolon
ENCODING 59
SWIDTH 707 0
DWIDTH 8 0
BBX 2 7 4 0
BITMAP
c0
c0
00
00
c0
40
80
ENDCHAR
STARTCHAR less
ENCODING 60
SWIDTH 707 0
DWIDTH 8 0
BBX 4 7 3 1
BITMAP
10
20
40
80
40
20
10
ENDCHAR
STARTCHAR equal
ENCODING 61
SWIDTH 707 0
DWIDTH 8 0
BBX 6 4 2 2
BITMAP
fc
00
00
fc
ENDCHAR
STARTCHAR greater
ENCODING 62
SWIDTH 707 0
DWIDTH 8 0
BBX 4 7 3 1
BITMAP
80
40
20
10
20
40
80
ENDCHAR
STARTCHAR question
ENCODING 63
SWIDTH 707 0
DWIDTH 8 0
BBX 6 7 2 1
BITMAP
78
84
08
10
20
00
20
ENDCHAR
STARTCHAR at
ENCODING 64
SWIDTH 707 0
DWIDTH 8 0
BBX 6 7 2 1
BITMAP
78
84
9c
a4
9c
80
78
ENDCHAR
STARTCHAR A
ENCODING 65
SWIDTH 707 0
DWIDTH 8 0
BBX 6 7 2 1
BITMAP
30
48
84
84
fc
84
84
ENDCHAR
STARTCHAR B
ENCODING 66
SWIDTH 707 0
DWIDTH 8 0
BBX 6 7 2 1
BITMAP
f8
84
84
f8
84
84
f8
ENDCHAR
STARTCHAR C
ENCODING 67
SWIDTH 707 0
DWIDTH 8 0
BBX 6 7 2 1
BITMAP
78
84
80
80
80
84
78
ENDCHAR
STARTCHAR D
ENCODING 68
SWIDTH 707 0
DWIDTH 8 0
BBX 6 7 2 1
BITMAP
f0
88
84
84
84
88
f0
ENDCHAR
STARTCHAR E
ENCODING 69
SWIDTH 707 0
DWIDTH 8 0
BBX 6 7 2 1
BITMAP
fc
80
80
f8
80
80
fc
ENDCHAR
STARTCHAR F
ENCODING 70
SWIDTH 707 0
DWIDTH 8 0
BBX 6 7 2 1
BITMAP
fc
80
80
f8
80
80
80
ENDCHAR
STARTCHAR G
ENCODING 71
SWIDTH 707 0
DWIDTH 8 0
BBX 6 7 2 1
BITMAP
78
84
80
9c
84
84
78
ENDCHAR
STARTCHAR H
ENCODING 72
SWIDTH 707 0
DWIDTH 8 0
BBX 6 7 2 1
BITMAP
84
84
84
fc
84
84
84
ENDCHAR
STARTCHAR I
ENCODING 73
SWIDTH 707 0
DWIDTH 8 0
BBX 5 7 2 1
BITMAP
f8
20
20
20
20
20
f8
ENDCHAR
STARTCHAR J
ENCODING 74
SWIDTH 707 0
DWIDTH 8 0
BBX 6 7 2 1
BITMAP
04
04
04
04
84
84
78
ENDCHAR
STARTCHAR K
ENCODING 75
SWIDTH 707 0
DWIDTH 8 0
BBX 6 7 2 1
BITMAP
84
88
90
e0
90
88
84
ENDCHAR
STARTCHAR L
ENCODING 76
SWIDTH 707 0
DWIDTH 8 0
BBX 6 7 2 1
BITMAP
80
80
80
80
80
80
fc
ENDCHAR
STARTCHAR M
ENCODING 77
SWIDTH 707 0
DWIDTH 8 0
BBX 6 7 2 1
BITMAP
84
cc
b4
84
84
84
84
ENDCHAR
STARTCHAR N
ENCODING 78
SWIDTH 707 0
DWIDTH 8 0
BBX 6 7 2 1
BITMAP
84
c4
a4
94
8c
84
84
ENDCHAR
STARTCHAR O
ENCODING 79
SWIDTH 707 0
DWIDTH 8 0
BBX 6 7 2 1
BITMAP
78
84
84
84
84
84
78
ENDCHAR
STARTCHAR P
ENCODING 80
SWIDTH 707 0
DWIDTH 8 0
BBX 6 7 2 1
BITMAP
f8
84
84
f8
80
80
80
ENDCHAR
STARTCHAR Q
ENCODING 81
SWIDTH 707 0
DWIDTH 8 0
BBX 6 8 2 0
BITMAP
78
84
84
84
84
94
78
0c
ENDCHAR
STARTCHAR R
ENCODING 82
SWIDTH 707 0
DWIDTH 8 0
BBX 6 7 2 1
BITMAP
f8
84
84
f8
84
84
84
ENDCHAR
STARTCHAR S
ENCODING 83
SWIDTH 707 0
DWIDTH 8 0
BBX 6 7 2 1
BITMAP
78
84
80
78
04
84
78
ENDCHAR
STARTCHAR T
ENCODING 84
SWIDTH 707 0
DWIDTH 8 0
BBX 7 7 1 1
BITMAP
fe
10
10
10
10
10
10
ENDCHAR
STARTCHAR U
ENCODING 85
SWIDTH 707 0
DWIDTH 8 0
BBX 6 7 2 1
BITMAP
84
84
84
84
84
84
78
ENDCHAR
STARTCHAR V
ENCODING 86
SWIDTH 707 0
DWIDTH 8 0
BBX 7 7 1 1
BITMAP
82
82
82
82
44
28
10
ENDCHAR
STARTCHAR W
ENCODING 87
SWIDTH 707 0
DWIDTH 8 0
BBX 7 7 1 1
BITMAP
82
82
82
92
aa
c6
82
ENDCHAR
STARTCHAR X
ENCODING 88
SWIDTH 707 0
DWIDTH 8 0
BBX 6 7 2 1
BITMAP
84
84
48
30
48
84
84
ENDCHAR
STARTCHAR Y
ENCODING 89
SWIDTH 707 0
DWIDTH 8 0
BBX 7 7 1 1
BITMAP
82
82
44
28
10
10
10
ENDCHAR
STARTCHAR Z
ENCODING 90
SWIDTH 707 0
DWIDTH 8 0
BBX 5 7 2 1
BITMAP
f8
08
10
20
40
80
f8
ENDCHAR
STARTCHAR bracketleft
ENCODING 91
SWIDTH 707 0
DWIDTH 8 0
BBX 4 7 3 1
BITMAP
f0
80
80
80
80
80
f0
ENDCHAR
STARTCHAR backslash
ENCODING 92
SWIDTH 707 0
DWIDTH 8 0
BBX 7 7 1 1
BITMAP
80
40
20
10
08
04
02
ENDCHAR
STARTCHAR bracketright
ENCODING 93
SWIDTH 707 0
DWIDTH 8 0
BBX 4 7 3 1
BITMAP
f0
10
10
10
10
10
f0
ENDCHAR
STARTCHAR asciicircum
ENCODING 94
SWIDTH 707 0
DWIDTH 8 0
BBX 5 3 2 5
BITMAP
20
50
88
ENDCHAR
STARTCHAR underscore
ENCODING 95
SWIDTH 707 0
DWIDTH 8 0
BBX 6 1 2 0
BITMAP
fc
ENDCHAR
STARTCHAR grave
ENCODING 96
SWIDTH 707 0
DWIDTH 8 0
BBX 2 3 3 5
BITMAP
c0
80
40
ENDCHAR
STARTCHAR a
ENCODING 97
SWIDTH 707 0
DWIDTH 8 0
BBX 6 5 2 1
BITMAP
78
04
7c
8c
74
ENDCHAR
STARTCHAR b
ENCODING 98
SWIDTH 707 0
DWIDTH 8 0
BBX 6 7 2 1
BITMAP
80
80
80
f8
84
84
f8
ENDCHAR
STARTCHAR c
ENCODING 99
SWIDTH 707 0
DWIDTH 8 0
BBX 6 5 2 1
BITMAP
78
84
80
84
78
ENDCHAR
STARTCHAR d
ENCODING 100
SWIDTH 707 0
DWIDTH 8 0
BBX 6 7 2 1
BITMAP
04
04
04
7c
84
84
7c
ENDCHAR
STARTCHAR e
ENCODING 101
SWIDTH 707 0
DWIDTH 8 0
BBX 6 5 2 1
BITMAP
78
84
fc
80
7c
ENDCHAR
STARTCHAR f
ENCODING 102
SWIDTH 707 0
DWIDTH 8 0
BBX 6 7 2 1
BITMAP
18
24
20
f8
20
20
20
ENDCHAR
STARTCHAR g
ENCODING 103
SWIDTH 707 0
DWIDTH 8 0
BBX 6 6 2 0
BITMAP
7c
84
84
7c
04
78
ENDCHAR
STARTCHAR h
ENCODING 104
SWIDTH 707 0
DWIDTH 8 0
BBX 6 7 2 1
BITMAP
80
80
b8
c4
84
84
84
ENDCHAR
STARTCHAR i
ENCODING 105
SWIDTH 707 0
DWIDTH 8 0
BBX 5 7 2 1
BITMAP
20
00
60
20
20
20
f8
ENDCHAR
STARTCHAR j
ENCODING 106
SWIDTH 707 0
DWIDTH 8 0
BBX 4 8 3 0
BITMAP
10
00
30
10
10
90
90
60
ENDCHAR
STARTCHAR k
ENCODING 107
SWIDTH 707 0
DWIDTH 8 0
BBX 5 7 2 1
BITMAP
80
80
88
90
e0
90
88
ENDCHAR
STARTCHAR l
ENCODING 108
SWIDTH 707 0
DWIDTH 8 0
BBX 5 7 2 1
BITMAP
60
20
20
20
20
20
f8
ENDCHAR
STARTCHAR m
ENCODING 109
SWIDTH 707 0
DWIDTH 8 0
BBX 7 5 1 1
BITMAP
fc
92
92
92
92
ENDCHAR
STARTCHAR n
ENCODING 110
SWIDTH 707 0
DWIDTH 8 0
BBX 6 5 2 1
BITMAP
b8
c4
84
84
84
ENDCHAR
STARTCHAR o
ENCODING 111
SWIDTH 707 0
DWIDTH 8 0
BBX 6 5 2 1
BITMAP
78
84
84
84
78
ENDCHAR
STARTCHAR p
ENCODING 112
SWIDTH 707 0
DWIDTH 8 0
BBX 6 6 2 0
BITMAP
f8
84
84
f8
80
80
ENDCHAR
STARTCHAR q
ENCODING 113
SWIDTH 707 0
DWIDTH 8 0
BBX 6 6 2 0
BITMAP
7c
84
84
7c
04
04
ENDCHAR
STARTCHAR r
ENCODING 114
SWIDTH 707 0
DWIDTH 8 0
BBX 5 5 2 1
BITMAP
b0
c8
80
80
80
ENDCHAR
STARTCHAR s
ENCODING 115
SWIDTH 707 0
DWIDTH 8 0
BBX 6 5 2 1
BITMAP
7c
80
78
04
f8
ENDCHAR
STARTCHAR t
ENCODING 116
SWIDTH 707 0
DWIDTH 8 0
BBX 6 7 2 1
BITMAP
20
20
f8
20
20
24
18
ENDCHAR
STARTCHAR u
ENCODING 117
SWIDTH 707 0
DWIDTH 8 0
BBX 6 5 2 1
BITMAP
84
84
84
8c
74
ENDCHAR
STARTCHAR v
ENCODING 118
SWIDTH 707 0
DWIDTH 8 0
BBX 7 5 1 1
BITMAP
82
82
44
28
10
ENDCHAR
STARTCHAR w
ENCODING 119
SWIDTH 707 0
DWIDTH 8 0
BBX 7 5 1 1
BITMAP
82
92
aa
44
44
ENDCHAR
STARTCHAR x
ENCODING 120
SWIDTH 707 0
DWIDTH 8 0
BBX 6 5 2 1
BITMAP
84
48
30
48
84
ENDCHAR
STARTCHAR y
ENCODING 121
SWIDTH 707 0
DWIDTH 8 0
BBX 6 6 2 0
BITMAP
84
84
84
7c
04
78
ENDCHAR
STARTCHAR z
ENCODING 122
SWIDTH 707 0
DWIDTH 8 0
BBX 5 5 2 1
BITMAP
f8
10
20
40
f8
ENDCHAR
STARTCHAR braceleft
ENCODING 123
SWIDTH 707 0
DWIDTH 8 0
BBX 5 7 2 1
BITMAP
18
20
20
c0
20
20
18
ENDCHAR
STARTCHAR bar
ENCODING 124
SWIDTH 707 0
DWIDTH 8 0
BBX 1 7 4 1
BITMAP
80
80
80
80
80
80
80
ENDCHAR
STARTCHAR braceright
ENCODING 125
SWIDTH 707 0
DWIDTH 8 0
BBX 5 7 2 1
BITMAP
c0
20
20
18
20
20
c0
ENDCHAR
STARTCHAR asciitilde
ENCODING 126
SWIDTH 707 0
DWIDTH 8 0
BBX 6 2 1 6
BITMAP
64
98
ENDCHAR
STARTCHAR C177
ENCODING 127
SWIDTH 707 0
DWIDTH 8 0
BBX 6 7 2 1
BITMAP
54
a8
54
a8
54
a8
54
ENDCHAR
STARTCHAR C200
ENCODING 128
SWIDTH 707 0
DWIDTH 8 0
BBX 6 8 1 0
BITMAP
78
84
80
80
84
78
10
60
ENDCHAR
STARTCHAR C201
ENCODING 129
SWIDTH 707 0
DWIDTH 8 0
BBX 6 7 1 1
BITMAP
84
00
84
84
84
84
78
ENDCHAR
STARTCHAR C202
ENCODING 130
SWIDTH 707 0
DWIDTH 8 0
BBX 7 7 1 1
BITMAP
0e
00
78
84
fc
80
78
ENDCHAR
STARTCHAR C203
ENCODING 131
SWIDTH 707 0
DWIDTH 8 0
BBX 6 7 2 1
BITMAP
78
84
78
04
7c
8c
74
ENDCHAR
STARTCHAR C204
ENCODING 132
SWIDTH 707 0
DWIDTH 8 0
BBX 6 7 2 1
BITMAP
48
00
78
04
7c
8c
74
ENDCHAR
STARTCHAR C205
ENCODING 133
SWIDTH 707 0
DWIDTH 8 0
BBX 7 7 1 1
BITMAP
e0
00
3c
02
3e
46
3a
ENDCHAR
STARTCHAR C206
ENCODING 134
SWIDTH 707 0
DWIDTH 8 0
BBX 6 7 2 1
BITMAP
30
30
78
04
7c
8c
74
ENDCHAR
STARTCHAR C207
ENCODING 135
SWIDTH 707 0
DWIDTH 8 0
BBX 5 6 2 0
BITMAP
78
80
80
78
20
40
ENDCHAR
STARTCHAR C210
ENCODING 136
SWIDTH 707 0
DWIDTH 8 0
BBX 6 7 1 1
BITMAP
78
84
78
84
fc
80
78
ENDCHAR
STARTCHAR C211
ENCODING 137
SWIDTH 707 0
DWIDTH 8 0
BBX 6 7 1 1
BITMAP
48
00
78
84
fc
80
78
ENDCHAR
STARTCHAR C212
ENCODING 138
SWIDTH 707 0
DWIDTH 8 0
BBX 6 7 1 1
BITMAP
e0
00
78
84
fc
80
78
ENDCHAR
STARTCHAR C213
ENCODING 139
SWIDTH 707 0
DWIDTH 8 0
BBX 4 7 2 1
BITMAP
90
00
60
20
20
20
70
ENDCHAR
STARTCHAR C214
ENCODING 140
SWIDTH 707 0
DWIDTH 8 0
BBX 6 7 2 1
BITMAP
78
84
30
10
10
10
38
ENDCHAR
STARTCHAR C215
ENCODING 141
SWIDTH 707 0
DWIDTH 8 0
BBX 3 7 3 1
BITMAP
c0
00
c0
40
40
40
e0
ENDCHAR
STARTCHAR C216
ENCODING 142
SWIDTH 707 0
DWIDTH 8 0
BBX 7 7 1 1
BITMAP
82
38
44
82
fe
82
82
ENDCHAR
STARTCHAR C217
ENCODING 143
SWIDTH 707 0
DWIDTH 8 0
BBX 6 7 1 1
BITMAP
30
30
00
78
84
fc
84
ENDCHAR
STARTCHAR C220
ENCODING 144
SWIDTH 707 0
DWIDTH 8 0
BBX 6 7 1 1
BITMAP
1c
00
f8
80
f0
80
f8
ENDCHAR
STARTCHAR C221
ENCODING 145
SWIDTH 707 0
DWIDTH 8 0
BBX 7 5 1 1
BITMAP
7e
08
7e
88
7e
ENDCHAR
STARTCHAR C222
ENCODING 146
SWIDTH 707 0
DWIDTH 8 0
BBX 7 7 1 1
BITMAP
7e
c8
c8
fe
c8
c8
ce
ENDCHAR
STARTCHAR C223
ENCODING 147
SWIDTH 707 0
DWIDTH 8 0
BBX 6 7 1 1
BITMAP
78
84
00
78
84
84
78
ENDCHAR
STARTCHAR C224
ENCODING 148
SWIDTH 707 0
DWIDTH 8 0
BBX 6 7 1 1
BITMAP
48
00
00
78
84
84
78
ENDCHAR
STARTCHAR C225
ENCODING 149
SWIDTH 707 0
DWIDTH 8 0
BBX 6 7 1 1
BITMAP
e0
00
00
78
84
84
78
ENDCHAR
STARTCHAR C226
ENCODING 150
SWIDTH 707 0
DWIDTH 8 0
BBX 6 7 1 1
BITMAP
78
84
00
84
84
84
78
ENDCHAR
STARTCHAR C227
ENCODING 151
SWIDTH 707 0
DWIDTH 8 0
BBX 6 7 1 1
BITMAP
e0
00
00
84
84
84
78
ENDCHAR
STARTCHAR C230
ENCODING 152
SWIDTH 707 0
DWIDTH 8 0
BBX 6 7 1 0
BITMAP
48
00
84
84
7c
04
78
ENDCHAR
STARTCHAR C231
ENCODING 153
SWIDTH 707 0
DWIDTH 8 0
BBX 6 7 1 1
BITMAP
84
30
48
84
84
48
30
ENDCHAR
STARTCHAR C232
ENCODING 154
SWIDTH 707 0
DWIDTH 8 0
BBX 6 7 1 1
BITMAP
84
00
84
84
84
84
78
ENDCHAR
STARTCHAR C233
ENCODING 155
SWIDTH 707 0
DWIDTH 8 0
BBX 6 8 1 0
BITMAP
10
10
7c
80
80
7c
10
10
ENDCHAR
STARTCHAR C234
ENCODING 156
SWIDTH 707 0
DWIDTH 8 0
BBX 7 7 1 1
BITMAP
38
44
44
e0
40
42
fc
ENDCHAR
STARTCHAR C235
ENCODING 157
SWIDTH 707 0
DWIDTH 8 0
BBX 5 8 2 0
BITMAP
88
88
70
f8
20
f8
20
20
ENDCHAR
STARTCHAR C236
ENCODING 158
SWIDTH 707 0
DWIDTH 8 0
BBX 7 8 1 0
BITMAP
f8
84
84
f8
84
8e
84
86
ENDCHAR
STARTCHAR C237
ENCODING 159
SWIDTH 707 0
DWIDTH 8 0
BBX 7 7 1 1
BITMAP
0c
12
10
7c
10
90
60
ENDCHAR
STARTCHAR nobreakspace
ENCODING 160
SWIDTH 707 0
DWIDTH 8 0
BBX 6 7 2 1
BITMAP
38
00
78
04
7c
8c
74
ENDCHAR
STARTCHAR exclamdown
ENCODING 161
SWIDTH 707 0
DWIDTH 8 0
BBX 3 7 3 1
BITMAP
e0
00
c0
40
40
40
e0
ENDCHAR
STARTCHAR cent
ENCODING 162
SWIDTH 707 0
DWIDTH 8 0
BBX 6 7 1 1
BITMAP
1c
00
00
78
84
84
78
ENDCHAR
STARTCHAR sterling
ENCODING 163
SWIDTH 707 0
DWIDTH 8 0
BBX 6 7 1 1
BITMAP
1c
00
00
84
84
84
78
ENDCHAR
STARTCHAR currency
ENCODING 164
SWIDTH 707 0
DWIDTH 8 0
BBX 6 7 1 1
BITMAP
fc
00
00
b8
c4
84
84
ENDCHAR
STARTCHAR yen
ENCODING 165
SWIDTH 707 0
DWIDTH 8 0
BBX 6 7 1 1
BITMAP
fc
00
84
c4
a4
94
8c
ENDCHAR
STARTCHAR brokenbar
ENCODING 166
SWIDTH 707 0
DWIDTH 8 0
BBX 5 6 2 2
BITMAP
78
88
88
78
00
f8
ENDCHAR
STARTCHAR section
ENCODING 167
SWIDTH 707 0
DWIDTH 8 0
BBX 5 6 2 2
BITMAP
70
88
88
70
00
f8
ENDCHAR
STARTCHAR diaeresis
ENCODING 168
SWIDTH 707 0
DWIDTH 8 0
BBX 4 7 2 1
BITMAP
20
00
20
40
80
90
60
ENDCHAR
STARTCHAR copyright
ENCODING 169
SWIDTH 707 0
DWIDTH 8 0
BBX 6 3 1 2
BITMAP
fc
80
80
ENDCHAR
STARTCHAR ordfeminine
ENCODING 170
SWIDTH 707 0
DWIDTH 8 0
BBX 6 3 1 2
BITMAP
fc
04
04
ENDCHAR
STARTCHAR guillemotleft
ENCODING 171
SWIDTH 707 0
DWIDTH 8 0
BBX 7 8 1 0
BITMAP
80
84
88
9c
22
4c
90
1e
ENDCHAR
STARTCHAR notsign
ENCODING 172
SWIDTH 707 0
DWIDTH 8 0
BBX 7 8 1 0
BITMAP
82
84
88
90
2a
4a
8e
02
ENDCHAR
STARTCHAR hyphen
ENCODING 173
SWIDTH 707 0
DWIDTH 8 0
BBX 1 7 4 1
BITMAP
80
80
00
80
80
80
80
ENDCHAR
STARTCHAR registered
ENCODING 174
SWIDTH 707 0
DWIDTH 8 0
BBX 6 5 1 2
BITMAP
24
48
90
48
24
ENDCHAR
STARTCHAR macron
ENCODING 175
SWIDTH 707 0
DWIDTH 8 0
BBX 6 5 1 2
BITMAP
90
48
24
48
90
ENDCHAR
STARTCHAR degree
ENCODING 176
SWIDTH 707 0
DWIDTH 8 0
BBX 7 8 0 0
BITMAP
22
88
22
88
22
88
22
88
ENDCHAR
STARTCHAR plusminus
ENCODING 177
SWIDTH 707 0
DWIDTH 8 0
BBX 8 8 0 0
BITMAP
55
aa
55
aa
55
aa
55
aa
ENDCHAR
STARTCHAR twosuperior
ENCODING 178
SWIDTH 707 0
DWIDTH 8 0
BBX 8 8 0 0
BITMAP
db
77
db
ee
db
77
db
ee
ENDCHAR
STARTCHAR threesuperior
ENCODING 179
SWIDTH 707 0
DWIDTH 8 0
BBX 1 8 4 0
BITMAP
80
80
80
80
80
80
80
80
ENDCHAR
STARTCHAR acute
ENCODING 180
SWIDTH 707 0
DWIDTH 8 0
BBX 5 8 0 0
BITMAP
08
08
08
08
f8
08
08
08
ENDCHAR
STARTCHAR mu
ENCODING 181
SWIDTH 707 0
DWIDTH 8 0
BBX 5 8 0 0
BITMAP
08
08
08
f8
f8
08
08
08
ENDCHAR
STARTCHAR paragraph
ENCODING 182
SWIDTH 707 0
DWIDTH 8 0
BBX 6 8 0 0
BITMAP
1c
1c
1c
1c
fc
1c
1c
1c
ENDCHAR
STARTCHAR periodcentered
ENCODING 183
SWIDTH 707 0
DWIDTH 8 0
BBX 6 4 0 0
BITMAP
fc
1c
1c
1c
ENDCHAR
STARTCHAR cedilla
ENCODING 184
SWIDTH 707 0
DWIDTH 8 0
BBX 5 5 0 0
BITMAP
f8
f8
08
08
08
ENDCHAR
STARTCHAR onesuperior
ENCODING 185
SWIDTH 707 0
DWIDTH 8 0
BBX 6 8 0 0
BITMAP
1c
1c
1c
fc
fc
1c
1c
1c
ENDCHAR
STARTCHAR masculine
ENCODING 186
SWIDTH 707 0
DWIDTH 8 0
BBX 3 8 3 0
BITMAP
e0
e0
e0
e0
e0
e0
e0
e0
ENDCHAR
STARTCHAR guillemotright
ENCODING 187
SWIDTH 707 0
DWIDTH 8 0
BBX 6 5 0 0
BITMAP
fc
fc
1c
1c
1c
ENDCHAR
STARTCHAR onequarter
ENCODING 188
SWIDTH 707 0
DWIDTH 8 0
BBX 6 5 0 3
BITMAP
1c
1c
1c
fc
fc
ENDCHAR
STARTCHAR onehalf
ENCODING 189
SWIDTH 707 0
DWIDTH 8 0
BBX 6 5 0 3
BITMAP
1c
1c
1c
1c
fc
ENDCHAR
STARTCHAR threequarters
ENCODING 190
SWIDTH 707 0
DWIDTH 8 0
BBX 5 5 0 3
BITMAP
08
08
08
f8
f8
ENDCHAR
STARTCHAR questiondown
ENCODING 191
SWIDTH 707 0
DWIDTH 8 0
BBX 5 4 0 0
BITMAP
f8
08
08
08
ENDCHAR
STARTCHAR Agrave
ENCODING 192
SWIDTH 707 0
DWIDTH 8 0
BBX 4 5 4 3
BITMAP
80
80
80
80
f0
ENDCHAR
STARTCHAR Aacute
ENCODING 193
SWIDTH 707 0
DWIDTH 8 0
BBX 8 5 0 3
BITMAP
08
08
08
08
ff
ENDCHAR
STARTCHAR Acircumflex
ENCODING 194
SWIDTH 707 0
DWIDTH 8 0
BBX 8 4 0 0
BITMAP
ff
08
08
08
ENDCHAR
STARTCHAR Atilde
ENCODING 195
SWIDTH 707 0
DWIDTH 8 0
BBX 4 8 4 0
BITMAP
80
80
80
80
f0
80
80
80
ENDCHAR
STARTCHAR Adiaeresis
ENCODING 196
SWIDTH 707 0
DWIDTH 8 0
BBX 8 1 0 3
BITMAP
ff
ENDCHAR
STARTCHAR Aring
ENCODING 197
SWIDTH 707 0
DWIDTH 8 0
BBX 8 8 0 0
BITMAP
08
08
08
08
ff
08
08
08
ENDCHAR
STARTCHAR AE
ENCODING 198
SWIDTH 707 0
DWIDTH 8 0
BBX 4 8 4 0
BITMAP
80
80
80
f0
f0
80
80
80
ENDCHAR
STARTCHAR Ccedilla
ENCODING 199
SWIDTH 707 0
DWIDTH 8 0
BBX 5 8 3 0
BITMAP
e0
e0
e0
e0
f8
e0
e0
e0
ENDCHAR
STARTCHAR Egrave
ENCODING 200
SWIDTH 707 0
DWIDTH 8 0
BBX 5 5 3 3
BITMAP
e0
e0
e0
f8
f8
ENDCHAR
STARTCHAR Eacute
ENCODING 201
SWIDTH 707 0
DWIDTH 8 0
BBX 5 5 3 0
BITMAP
f8
f8
e0
e0
e0
ENDCHAR
STARTCHAR Ecircumflex
ENCODING 202
SWIDTH 707 0
DWIDTH 8 0
BBX 8 5 0 3
BITMAP
1c
1c
1c
ff
ff
ENDCHAR
STARTCHAR Ediaeresis
ENCODING 203
SWIDTH 707 0
DWIDTH 8 0
BBX 8 5 0 0
BITMAP
ff
ff
1c
1c
1c
ENDCHAR
STARTCHAR Igrave
ENCODING 204
SWIDTH 707 0
DWIDTH 8 0
BBX 5 8 3 0
BITMAP
e0
e0
e0
f8
f8
e0
e0
e0
ENDCHAR
STARTCHAR Iacute
ENCODING 205
SWIDTH 707 0
DWIDTH 8 0
BBX 8 2 0 3
BITMAP
ff
ff
ENDCHAR
STARTCHAR Icircumflex
ENCODING 206
SWIDTH 707 0
DWIDTH 8 0
BBX 8 8 0 0
BITMAP
1c
1c
1c
ff
ff
1c
1c
1c
ENDCHAR
STARTCHAR Idiaeresis
ENCODING 207
SWIDTH 707 0
DWIDTH 8 0
BBX 8 5 0 3
BITMAP
08
08
08
ff
ff
ENDCHAR
STARTCHAR ETH
ENCODING 208
SWIDTH 707 0
DWIDTH 8 0
BBX 8 5 0 3
BITMAP
1c
1c
1c
1c
ff
ENDCHAR
STARTCHAR Ntilde
ENCODING 209
SWIDTH 707 0
DWIDTH 8 0
BBX 8 5 0 0
BITMAP
ff
ff
08
08
08
ENDCHAR
STARTCHAR Ograve
ENCODING 210
SWIDTH 707 0
DWIDTH 8 0
BBX 8 4 0 0
BITMAP
ff
1c
1c
1c
ENDCHAR
STARTCHAR Oacute
ENCODING 211
SWIDTH 707 0
DWIDTH 8 0
BBX 5 5 3 3
BITMAP
e0
e0
e0
e0
f8
ENDCHAR
STARTCHAR Ocircumflex
ENCODING 212
SWIDTH 707 0
DWIDTH 8 0
BBX 4 5 4 3
BITMAP
80
80
80
f0
f0
ENDCHAR
STARTCHAR Otilde
ENCODING 213
SWIDTH 707 0
DWIDTH 8 0
BBX 4 5 4 0
BITMAP
f0
f0
80
80
80
ENDCHAR
STARTCHAR Odiaeresis
ENCODING 214
SWIDTH 707 0
DWIDTH 8 0
BBX 5 4 3 0
BITMAP
f8
e0
e0
e0
ENDCHAR
STARTCHAR multiply
ENCODING 215
SWIDTH 707 0
DWIDTH 8 0
BBX 8 8 0 0
BITMAP
1c
1c
1c
1c
ff
1c
1c
1c
ENDCHAR
STARTCHAR Ooblique
ENCODING 216
SWIDTH 707 0
DWIDTH 8 0
BBX 8 8 0 0
BITMAP
08
08
08
ff
ff
08
08
08
ENDCHAR
STARTCHAR Ugrave
ENCODING 217
SWIDTH 707 0
DWIDTH 8 0
BBX 5 8 0 0
BITMAP
08
08
08
08
f8
08
08
08
ENDCHAR
STARTCHAR Uacute
ENCODING 218
SWIDTH 707 0
DWIDTH 8 0
BBX 4 4 4 0
BITMAP
f0
80
80
80
ENDCHAR
STARTCHAR Ucircumflex
ENCODING 219
SWIDTH 707 0
DWIDTH 8 0
BBX 8 8 0 0
BITMAP
ff
ff
ff
ff
ff
ff
ff
ff
ENDCHAR
STARTCHAR Udiaeresis
ENCODING 220
SWIDTH 707 0
DWIDTH 8 0
BBX 8 4 0 0
BITMAP
ff
ff
ff
ff
ENDCHAR
STARTCHAR Yacute
ENCODING 221
SWIDTH 707 0
DWIDTH 8 0
BBX 4 8 0 0
BITMAP
f0
f0
f0
f0
f0
f0
f0
f0
ENDCHAR
STARTCHAR THORN
ENCODING 222
SWIDTH 707 0
DWIDTH 8 0
BBX 4 8 4 0
BITMAP
f0
f0
f0
f0
f0
f0
f0
f0
ENDCHAR
STARTCHAR ssharp
ENCODING 223
SWIDTH 707 0
DWIDTH 8 0
BBX 8 4 0 4
BITMAP
ff
ff
ff
ff
ENDCHAR
STARTCHAR agrave
ENCODING 224
SWIDTH 707 0
DWIDTH 8 0
BBX 7 5 1 1
BITMAP
76
88
88
88
76
ENDCHAR
STARTCHAR aacute
ENCODING 225
SWIDTH 707 0
DWIDTH 8 0
BBX 6 7 1 0
BITMAP
78
84
f8
84
f8
80
80
ENDCHAR
STARTCHAR acircumflex
ENCODING 226
SWIDTH 707 0
DWIDTH 8 0
BBX 6 6 1 1
BITMAP
fc
84
80
80
80
80
ENDCHAR
STARTCHAR atilde
ENCODING 227
SWIDTH 707 0
DWIDTH 8 0
BBX 6 6 2 1
BITMAP
fc
48
48
48
48
48
ENDCHAR
STARTCHAR adiaeresis
ENCODING 228
SWIDTH 707 0
DWIDTH 8 0
BBX 6 7 1 1
BITMAP
fc
84
40
20
40
84
fc
ENDCHAR
STARTCHAR aring
ENCODING 229
SWIDTH 707 0
DWIDTH 8 0
BBX 7 5 1 1
BITMAP
7e
88
88
88
70
ENDCHAR
STARTCHAR ae
ENCODING 230
SWIDTH 707 0
DWIDTH 8 0
BBX 7 7 1 0
BITMAP
42
42
42
42
3c
20
c0
ENDCHAR
STARTCHAR ccedilla
ENCODING 231
SWIDTH 707 0
DWIDTH 8 0
BBX 7 6 1 1
BITMAP
66
98
10
10
10
10
ENDCHAR
STARTCHAR egrave
ENCODING 232
SWIDTH 707 0
DWIDTH 8 0
BBX 5 8 2 0
BITMAP
f8
20
70
88
88
70
20
f8
ENDCHAR
STARTCHAR eacute
ENCODING 233
SWIDTH 707 0
DWIDTH 8 0
BBX 7 7 1 1
BITMAP
38
44
82
fe
82
44
38
ENDCHAR
STARTCHAR ecircumflex
ENCODING 234
SWIDTH 707 0
DWIDTH 8 0
BBX 7 7 1 1
BITMAP
38
44
44
44
28
28
ee
ENDCHAR
STARTCHAR ediaeresis
ENCODING 235
SWIDTH 707 0
DWIDTH 8 0
BBX 6 7 1 1
BITMAP
1c
20
10
78
84
84
78
ENDCHAR
STARTCHAR igrave
ENCODING 236
SWIDTH 707 0
DWIDTH 8 0
BBX 7 4 1 2
BITMAP
6c
92
92
6c
ENDCHAR
STARTCHAR iacute
ENCODING 237
SWIDTH 707 0
DWIDTH 8 0
BBX 8 8 0 0
BITMAP
01
02
3e
49
51
3e
40
80
ENDCHAR
STARTCHAR icircumflex
ENCODING 238
SWIDTH 707 0
DWIDTH 8 0
BBX 5 7 2 1
BITMAP
38
40
80
f8
80
40
38
ENDCHAR
STARTCHAR idiaeresis
ENCODING 239
SWIDTH 707 0
DWIDTH 8 0
BBX 6 7 1 1
BITMAP
78
84
84
84
84
84
84
ENDCHAR
STARTCHAR eth
ENCODING 240
SWIDTH 707 0
DWIDTH 8 0
BBX 6 5 1 2
BITMAP
fc
00
fc
00
fc
ENDCHAR
STARTCHAR ntilde
ENCODING 241
SWIDTH 707 0
DWIDTH 8 0
BBX 5 7 2 1
BITMAP
20
20
f8
20
20
00
f8
ENDCHAR
STARTCHAR ograve
ENCODING 242
SWIDTH 707 0
DWIDTH 8 0
BBX 5 7 2 1
BITMAP
40
20
10
20
40
00
f8
ENDCHAR
STARTCHAR oacute
ENCODING 243
SWIDTH 707 0
DWIDTH 8 0
BBX 6 7 1 1
BITMAP
10
20
40
20
10
00
fc
ENDCHAR
STARTCHAR ocircumflex
ENCODING 244
SWIDTH 707 0
DWIDTH 8 0
BBX 4 8 4 0
BITMAP
60
90
90
80
80
80
80
80
ENDCHAR
STARTCHAR otilde
ENCODING 245
SWIDTH 707 0
DWIDTH 8 0
BBX 4 8 1 0
BITMAP
10
10
10
10
10
90
90
60
ENDCHAR
STARTCHAR odiaeresis
ENCODING 246
SWIDTH 707 0
DWIDTH 8 0
BBX 6 7 1 1
BITMAP
30
30
00
fc
00
30
30
ENDCHAR
STARTCHAR division
ENCODING 247
SWIDTH 707 0
DWIDTH 8 0
BBX 6 5 1 2
BITMAP
64
98
00
64
98
ENDCHAR
STARTCHAR oslash
ENCODING 248
SWIDTH 707 0
DWIDTH 8 0
BBX 5 4 2 4
BITMAP
70
88
88
70
ENDCHAR
STARTCHAR ugrave
ENCODING 249
SWIDTH 707 0
DWIDTH 8 0
BBX 2 2 3 3
BITMAP
c0
c0
ENDCHAR
STARTCHAR uacute
ENCODING 250
SWIDTH 707 0
DWIDTH 8 0
BBX 2 1 3 3
BITMAP
c0
ENDCHAR
STARTCHAR ucircumflex
ENCODING 251
SWIDTH 707 0
DWIDTH 8 0
BBX 7 8 1 0
BITMAP
1e
10
10
10
10
90
50
30
ENDCHAR
STARTCHAR udiaeresis
ENCODING 252
SWIDTH 707 0
DWIDTH 8 0
BBX 5 5 2 3
BITMAP
b0
c8
88
88
88
ENDCHAR
STARTCHAR yacute
ENCODING 253
SWIDTH 707 0
DWIDTH 8 0
BBX 4 5 2 3
BITMAP
e0
10
60
80
f0
ENDCHAR
STARTCHAR thorn
ENCODING 254
SWIDTH 707 0
DWIDTH 8 0
BBX 4 4 2 2
BITMAP
f0
f0
f0
f0
ENDCHAR
STARTCHAR ydiaeresis
ENCODING 255
SWIDTH 707 0
DWIDTH 8 0
BBX 8 8 0 0
BITMAP
88
d8
a8
89
89
0f
09
09
ENDCHAR
ENDFONT
